<?xml version="1.0"?><svg fill="#000000" xmlns="http://www.w3.org/2000/svg"  viewBox="0 0 24 24" width="48px" height="48px">    <path d="M 6 2 C 4.9 2 4 2.9 4 4 L 4 20 C 4 21.1 4.9 22 6 22 L 14.123047 22 L 13.537109 21.414062 L 12.123047 20 L 6 20 L 6 4 L 18 4 L 18 14 L 20 14 L 20 4 C 20 2.895 19.105 2 18 2 L 6 2 z M 11 6 A 2 2 0 0 0 9 8 A 2 2 0 0 0 11 10 A 2 2 0 0 0 13 8 A 2 2 0 0 0 11 6 z M 11 11 C 9.999 11 8 11.628 8 12.875 L 8 14 L 14 14 L 14 12.875 C 14 11.628 12.001 11 11 11 z M 18 16 L 18 20 L 14.951172 20 L 18.951172 24 L 22.951172 20 L 20 20 L 20 16 L 18 16 z"/></svg>